<?xml version="1.0" standalone="no"?>
<!DOCTYPE svg PUBLIC "-//W3C//DTD SVG 20010904//EN"
 "http://www.w3.org/TR/2001/REC-SVG-20010904/DTD/svg10.dtd">
<svg version="1.0" xmlns="http://www.w3.org/2000/svg"
 width="1080.000000pt" height="1080.000000pt" viewBox="0 0 1080.000000 1080.000000"
 preserveAspectRatio="xMidYMid meet">
<metadata>
Created by potrace 1.16, written by Peter Selinger 2001-2019
</metadata>
<g transform="translate(0.000000,1080.000000) scale(0.100000,-0.100000)"
fill="#000000" stroke="none">
<path d="M3665 7091 c-248 -65 -344 -377 -172 -560 30 -31 31 -34 13 -45 -148
-91 -236 -245 -236 -412 l0 -74 410 0 410 0 0 -410 0 -410 275 0 275 0 11 -27
c22 -58 42 -93 73 -129 l33 -38 -43 -29 c-130 -86 -214 -250 -214 -419 l0 -48
415 0 415 0 0 -65 0 -65 -825 0 -825 0 -2 -211 -3 -211 -52 -20 c-73 -27 -146
-96 -185 -175 -28 -57 -32 -75 -31 -143 0 -89 27 -159 83 -224 29 -33 32 -39
18 -47 -43 -24 -120 -93 -146 -131 -66 -97 -92 -175 -92 -280 l0 -68 481 0
482 0 -5 83 c-7 101 -33 178 -88 256 -33 47 -111 119 -158 147 -2 1 15 25 36
54 118 155 88 371 -66 486 -26 19 -66 40 -89 46 l-43 12 0 143 0 143 753 -2
752 -3 3 -138 c2 -124 1 -138 -15 -143 -101 -32 -195 -112 -235 -201 -33 -74
-31 -200 5 -273 14 -31 41 -70 58 -88 18 -18 30 -34 28 -35 -2 -2 -23 -16 -46
-31 -125 -83 -193 -209 -209 -383 l-7 -73 487 0 486 0 0 48 c0 74 -26 177 -61
242 -29 56 -113 145 -169 181 l-24 16 32 41 c58 73 77 127 77 222 0 71 -4 94
-26 141 -15 32 -45 75 -68 98 -40 40 -127 91 -156 91 -13 0 -15 21 -15 145 l0
145 750 0 750 0 0 -145 c0 -127 -2 -145 -16 -145 -32 0 -136 -65 -170 -105
-59 -73 -79 -129 -79 -225 0 -95 19 -149 76 -221 17 -22 30 -42 28 -43 -2 -2
-27 -22 -56 -43 -121 -91 -193 -238 -193 -394 l0 -49 481 0 481 0 -4 93 c-6
108 -30 178 -85 251 -37 48 -126 128 -154 139 -10 3 -5 14 18 38 95 102 116
254 52 386 -28 58 -117 137 -182 161 l-52 20 -3 211 -2 211 -820 0 -820 0 0
65 0 65 410 0 410 0 0 63 c0 75 -20 159 -56 229 -31 61 -119 157 -168 183
l-34 19 38 44 c22 24 48 67 59 96 l19 51 276 3 276 2 0 410 0 410 411 0 411 0
-4 98 c-3 83 -8 106 -35 162 -43 91 -84 143 -151 193 l-58 42 43 59 c52 71 68
120 67 211 -1 125 -78 246 -193 302 -48 24 -68 28 -146 28 -78 0 -97 -4 -147
-28 -72 -35 -130 -93 -165 -165 -24 -50 -28 -69 -28 -147 0 -101 18 -150 80
-222 34 -40 34 -40 12 -51 -34 -15 -106 -81 -137 -124 l-28 -38 -36 47 c-20
26 -60 64 -89 86 -28 21 -54 41 -56 43 -2 2 10 19 28 39 63 72 76 110 76 220
0 84 -4 107 -23 146 -36 74 -87 125 -160 161 -60 30 -76 33 -152 33 -76 0 -92
-3 -152 -33 -73 -36 -124 -87 -160 -161 -19 -39 -23 -62 -23 -146 0 -109 14
-148 75 -219 17 -18 30 -36 30 -38 0 -3 -24 -21 -53 -41 -124 -85 -197 -230
-197 -389 l0 -68 410 0 410 0 0 -340 0 -340 -208 0 -207 0 -17 48 c-65 181
-288 274 -460 192 -205 -96 -267 -347 -130 -525 l39 -49 -57 -42 c-32 -23 -72
-62 -90 -87 l-32 -45 -42 51 c-23 29 -65 68 -93 87 l-50 36 30 34 c85 100 108
248 55 362 -35 75 -98 141 -167 175 -49 24 -68 28 -146 28 -78 0 -97 -4 -147
-28 -71 -35 -151 -121 -175 -188 l-18 -49 -207 0 -208 0 0 340 0 340 410 0
410 0 0 73 c0 180 -68 296 -249 423 -2 2 11 18 28 36 124 131 111 357 -26 478
-75 66 -125 85 -228 85 -77 0 -98 -4 -146 -26 -201 -95 -263 -353 -125 -522
l44 -54 -35 -18 c-19 -11 -61 -47 -94 -82 l-59 -64 -59 64 c-33 35 -75 72 -95
82 l-34 19 38 44 c59 67 83 139 78 237 -4 62 -11 92 -32 133 -58 115 -164 183
-290 188 -39 2 -84 0 -101 -5z m198 -167 c61 -42 89 -103 85 -180 -4 -72 -31
-119 -91 -157 -152 -99 -350 42 -306 217 34 136 198 199 312 120z m785 20 c58
-24 101 -72 118 -132 34 -114 -33 -226 -152 -253 -67 -15 -123 1 -179 52 -52
48 -69 92 -63 165 11 135 152 220 276 168z m1650 1 c151 -64 167 -273 27 -360
-134 -83 -305 10 -305 167 0 152 141 249 278 193z m827 -4 c70 -31 125 -113
125 -185 0 -44 -27 -104 -65 -141 -37 -38 -97 -65 -141 -65 -76 0 -162 62
-190 135 -64 168 108 330 271 256z m-3234 -563 c32 -14 76 -45 99 -68 38 -38
90 -128 90 -157 0 -10 -73 -13 -330 -13 -366 0 -345 -4 -315 66 34 81 115 155
205 188 68 24 180 17 251 -16z m824 1 c72 -33 148 -113 172 -179 l21 -55 -331
-3 c-181 -1 -332 0 -335 3 -9 8 28 93 57 129 42 53 86 86 149 113 76 32 191
28 267 -8z m1657 -7 c43 -21 80 -48 102 -76 35 -41 75 -119 76 -143 0 -10 -73
-13 -330 -13 -372 0 -349 -6 -306 79 34 66 70 107 123 138 74 43 113 53 193
51 62 -3 87 -9 142 -36z m821 4 c69 -34 140 -110 165 -179 l20 -52 -331 -3
c-181 -1 -332 -1 -334 1 -1 2 4 25 13 51 18 52 100 148 148 173 99 52 225 55
319 9z m-2128 -945 c71 -32 125 -113 125 -187 0 -39 -30 -109 -62 -141 -31
-32 -102 -63 -142 -63 -106 0 -205 100 -206 206 0 50 41 136 78 161 67 45 141
54 207 24z m836 -4 c87 -46 130 -153 99 -248 -24 -71 -119 -139 -196 -139 -62
0 -144 51 -173 108 -30 59 -34 97 -17 154 36 124 175 184 287 125z m-779 -555
c84 -37 164 -127 188 -211 l9 -31 -335 0 -335 0 7 23 c24 79 98 171 165 208
82 44 215 49 301 11z m828 -4 c30 -14 75 -45 99 -69 40 -41 91 -127 91 -156 0
-10 -74 -13 -335 -13 l-335 0 19 51 c36 93 109 164 209 202 68 25 180 19 252
-15z m-2112 -1087 c165 -85 142 -330 -36 -376 -120 -31 -235 43 -256 165 -14
79 49 189 124 219 43 17 127 13 168 -8z m1652 -3 c58 -30 99 -88 106 -154 29
-243 -317 -318 -395 -85 -32 97 22 211 120 250 44 18 122 12 169 -11z m1648 1
c79 -38 125 -142 103 -226 -52 -192 -310 -212 -386 -31 -29 70 -13 161 38 217
56 60 165 78 245 40z m-3264 -549 c71 -27 147 -99 180 -170 14 -30 26 -61 26
-67 0 -10 -74 -13 -335 -13 l-334 0 14 41 c34 94 109 174 199 208 70 27 178
28 250 1z m1674 -14 c85 -43 150 -122 177 -213 l6 -23 -336 0 -336 0 7 23 c33
108 126 203 234 238 14 5 63 7 110 5 69 -2 95 -8 138 -30z m1642 5 c83 -43
156 -129 181 -213 l8 -28 -335 0 c-261 0 -334 3 -334 13 1 22 39 98 71 138 32
40 94 82 157 106 57 21 196 12 252 -16z"/>
</g>
</svg>
