<?xml version="1.0" standalone="no"?>
<!DOCTYPE svg PUBLIC "-//W3C//DTD SVG 20010904//EN"
 "http://www.w3.org/TR/2001/REC-SVG-20010904/DTD/svg10.dtd">
<svg version="1.0" xmlns="http://www.w3.org/2000/svg"
 width="1080.000000pt" height="1080.000000pt" viewBox="0 0 1080.000000 1080.000000"
 preserveAspectRatio="xMidYMid meet">
<metadata>
Created by potrace 1.16, written by Peter Selinger 2001-2019
</metadata>
<g transform="translate(0.000000,1080.000000) scale(0.100000,-0.100000)"
fill="#000000" stroke="none">
<path d="M3162 6728 c-9 -9 -12 -441 -12 -1984 0 -1780 2 -1974 16 -1988 14
-14 230 -16 2233 -16 1758 0 2221 3 2234 13 16 11 17 140 15 1997 l-3 1985
-150 3 c-179 3 -175 6 -175 -110 l0 -78 -35 0 -35 0 0 69 c0 38 -4 81 -10 95
l-10 26 -150 0 -150 0 -10 -26 c-6 -14 -10 -57 -10 -95 l0 -69 -35 0 -35 0 0
78 c0 116 4 113 -175 110 l-150 -3 -3 -92 -3 -93 -39 0 -40 0 0 83 c0 51 -5
88 -12 95 -8 8 -58 12 -159 12 -125 0 -148 -2 -153 -16 -3 -9 -6 -200 -6 -425
l0 -409 -113 0 c-75 0 -117 -4 -125 -12 -8 -8 -12 -45 -12 -100 l0 -88 -40 0
-40 0 0 88 c0 55 -4 92 -12 100 -8 8 -57 12 -153 12 -96 0 -145 -4 -153 -12
-8 -8 -12 -45 -12 -100 l0 -88 -40 0 -40 0 0 88 c0 55 -4 92 -12 100 -8 8 -57
12 -155 12 -168 0 -163 4 -163 -120 l0 -81 -37 3 -38 3 -3 85 c-2 46 -8 90
-14 97 -7 9 -42 13 -119 13 l-109 0 0 408 c0 312 -3 412 -13 425 -11 16 -30
17 -162 15 l-150 -3 -3 -92 -3 -93 -39 0 -40 0 0 83 c0 51 -5 88 -12 95 -8 8
-58 12 -159 12 -125 0 -148 -2 -153 -16 -3 -9 -6 -51 -6 -95 l0 -79 -40 0 -40
0 0 79 c0 44 -3 86 -6 95 -5 14 -28 16 -153 16 -101 0 -151 -4 -159 -12 -7 -7
-12 -44 -12 -95 l0 -83 -40 0 -39 0 -3 93 -3 92 -150 3 c-109 2 -154 -1 -163
-10z m238 -152 c0 -59 4 -87 14 -95 9 -8 50 -11 117 -9 l104 3 3 93 3 92 84 0
85 0 0 -83 c0 -51 5 -88 12 -95 8 -8 47 -12 108 -12 61 0 100 4 108 12 7 7 12
44 12 95 l0 83 85 0 84 0 3 -92 3 -93 104 -3 c67 -2 108 1 117 9 10 8 14 36
14 95 l0 84 80 0 80 0 0 -115 0 -115 -606 -2 c-565 -3 -608 -4 -618 -20 -8
-13 -8 -23 0 -35 10 -17 53 -18 618 -21 529 -2 606 -4 606 -17 0 -13 -40 -15
-290 -15 -271 0 -290 -1 -299 -18 -7 -14 -6 -25 5 -40 15 -22 20 -22 300 -22
l284 0 0 -555 0 -555 -229 0 c-224 0 -230 -1 -245 -22 -11 -15 -12 -26 -5 -40
9 -17 26 -18 244 -18 l235 0 0 -30 0 -29 -81 -3 c-65 -2 -84 -7 -93 -20 -8
-13 -8 -23 0 -35 9 -14 28 -19 93 -21 l81 -3 0 -309 0 -310 -690 0 -690 0 0
30 0 30 568 0 c548 0 570 1 586 19 14 15 15 24 6 40 -11 21 -13 21 -585 21
l-575 0 0 25 0 25 234 0 c197 0 236 2 246 15 10 12 10 21 2 40 l-12 25 -235 0
-235 0 0 629 0 630 46 3 c54 3 77 26 58 56 -7 11 -27 18 -58 20 -41 3 -46 6
-46 27 0 24 1 24 106 27 89 3 109 6 118 21 8 12 8 22 0 35 -9 14 -29 17 -118
20 l-106 3 0 314 0 315 80 0 80 0 0 -84z m2952 -8 l3 -93 104 -3 c67 -2 108 1
117 9 10 8 14 36 14 95 l0 84 80 0 80 0 0 -76 c0 -113 1 -114 123 -114 67 0
107 4 115 12 7 7 12 44 12 95 l0 83 80 0 80 0 0 -83 c0 -51 5 -88 12 -95 8 -8
48 -12 115 -12 122 0 123 1 123 114 l0 76 80 0 80 0 0 -115 0 -115 -604 0
-605 0 -15 -22 c-11 -15 -12 -26 -5 -40 9 -17 37 -18 619 -18 533 0 610 -2
610 -15 0 -13 -42 -15 -291 -17 -265 -3 -293 -5 -303 -20 -8 -13 -8 -23 0 -35
10 -16 38 -18 303 -21 l291 -2 0 -555 0 -555 -229 0 c-195 0 -232 -2 -245 -16
-9 -8 -16 -21 -16 -28 0 -33 23 -36 257 -36 l233 0 0 -30 0 -30 -85 0 c-73 0
-86 -3 -95 -19 -13 -25 -13 -27 6 -45 11 -12 36 -16 95 -16 l79 0 0 -310 0
-310 -695 0 -695 0 0 30 0 30 574 0 c619 0 602 -2 594 52 l-3 23 -582 3 -583
2 0 25 0 25 240 0 c222 0 240 1 249 18 7 14 6 25 -5 40 -15 21 -21 22 -250 22
l-234 0 0 629 0 630 51 3 c36 2 55 8 63 21 19 30 -4 52 -63 55 -47 3 -51 5
-51 28 0 24 0 24 104 24 82 0 108 3 120 16 19 18 19 20 6 45 -10 17 -22 19
-120 19 l-110 0 0 315 0 315 85 0 84 0 3 -92z m-1482 -842 c0 -112 4 -116 124
-116 58 0 96 4 104 12 8 8 12 45 12 100 l0 88 85 0 85 0 0 -88 c0 -55 4 -92
12 -100 8 -8 47 -12 108 -12 61 0 100 4 108 12 8 8 12 45 12 100 l0 88 85 0
85 0 0 -88 c0 -55 4 -92 12 -100 8 -8 47 -12 108 -12 61 0 100 4 108 12 8 8
12 45 12 100 l0 88 85 0 85 0 0 -760 0 -760 -695 0 -695 0 0 760 0 760 80 0
80 0 0 -84z m-250 -1881 l0 -365 -88 0 c-115 0 -161 -29 -116 -74 12 -12 37
-16 110 -16 l94 0 0 -30 0 -30 -169 0 c-181 0 -196 -4 -189 -52 3 -23 4 -23
181 -26 l177 -2 0 -215 0 -215 -690 0 -690 0 0 530 0 530 103 0 c115 0 141 10
135 51 -3 24 -4 24 -120 27 l-118 3 0 124 0 125 690 0 690 0 0 -365z m1480 0
l0 -365 -91 0 c-102 0 -129 -10 -129 -45 0 -35 27 -45 129 -45 l91 0 0 -30 0
-30 -169 0 c-141 0 -172 -3 -185 -16 -9 -8 -16 -21 -16 -28 0 -32 24 -36 197
-36 l173 0 0 -215 0 -215 -195 0 -195 0 0 140 c0 159 -11 199 -59 224 -58 30
-119 15 -151 -36 -18 -29 -20 -51 -20 -180 0 -140 -1 -148 -19 -148 -19 0 -20
10 -23 223 -3 198 -5 226 -23 262 -30 60 -75 85 -151 85 -59 0 -67 -3 -104
-36 -23 -21 -44 -51 -50 -72 -5 -21 -10 -133 -10 -249 l0 -213 -195 0 -195 0
0 695 0 695 695 0 695 0 0 -365z m1470 0 l0 -365 -91 0 c-102 0 -129 -10 -129
-45 0 -35 27 -45 129 -45 l91 0 0 -30 0 -30 -169 0 c-141 0 -172 -3 -185 -16
-9 -8 -16 -21 -16 -28 0 -32 24 -36 197 -36 l173 0 0 -215 0 -215 -695 0 -695
0 0 530 0 530 109 0 c86 0 113 3 125 16 9 8 16 21 16 28 0 29 -25 36 -137 36
l-113 0 0 125 0 125 695 0 695 0 0 -365z"/>
<path d="M3726 6068 c-12 -17 -16 -49 -16 -133 0 -104 2 -113 23 -133 33 -31
90 -30 122 3 23 23 25 31 25 132 0 138 -8 153 -85 153 -44 0 -57 -4 -69 -22z"/>
<path d="M3996 6068 c-12 -17 -16 -49 -16 -131 0 -101 2 -109 25 -132 33 -34
93 -34 123 -2 20 21 22 34 22 133 0 139 -8 154 -85 154 -44 0 -57 -4 -69 -22z"/>
<path d="M3726 5508 c-12 -17 -16 -49 -16 -133 0 -104 2 -113 23 -133 33 -31
90 -30 122 3 23 23 25 31 25 132 0 138 -8 153 -85 153 -44 0 -57 -4 -69 -22z"/>
<path d="M3996 5508 c-12 -17 -16 -49 -16 -129 0 -92 3 -110 21 -133 28 -35
95 -37 127 -3 20 21 22 34 22 133 0 139 -8 154 -85 154 -44 0 -57 -4 -69 -22z"/>
<path d="M3726 4948 c-12 -17 -16 -49 -16 -133 0 -104 2 -113 23 -133 35 -33
99 -30 126 4 18 23 21 41 21 133 0 136 -8 151 -85 151 -44 0 -57 -4 -69 -22z"/>
<path d="M3996 4948 c-12 -17 -16 -49 -16 -129 0 -92 3 -110 21 -133 28 -35
95 -37 127 -3 20 21 22 34 22 133 0 139 -8 154 -85 154 -44 0 -57 -4 -69 -22z"/>
<path d="M6676 6074 c-13 -12 -16 -40 -16 -135 0 -139 10 -159 80 -159 70 0
80 20 80 159 0 141 -5 151 -80 151 -31 0 -54 -6 -64 -16z"/>
<path d="M6947 6072 c-14 -15 -17 -41 -17 -135 0 -104 2 -119 20 -137 26 -26
89 -27 121 -1 21 17 24 29 27 118 3 74 0 108 -11 136 -16 36 -17 37 -70 37
-40 0 -58 -5 -70 -18z"/>
<path d="M6676 5514 c-13 -12 -16 -40 -16 -135 0 -139 10 -159 80 -159 70 0
80 20 80 159 0 141 -5 151 -80 151 -31 0 -54 -6 -64 -16z"/>
<path d="M6947 5512 c-14 -15 -17 -41 -17 -135 0 -104 2 -119 20 -137 26 -26
89 -27 121 -1 21 17 24 29 27 118 3 74 0 108 -11 136 -16 36 -17 37 -70 37
-40 0 -58 -5 -70 -18z"/>
<path d="M6676 4954 c-13 -12 -16 -40 -16 -135 0 -139 10 -159 80 -159 70 0
80 20 80 159 0 141 -5 151 -80 151 -31 0 -54 -6 -64 -16z"/>
<path d="M6947 4952 c-14 -15 -17 -41 -17 -135 0 -104 2 -119 20 -137 26 -26
89 -27 121 -1 21 17 24 29 27 118 3 74 0 108 -11 136 -16 36 -17 37 -70 37
-40 0 -58 -5 -70 -18z"/>
<path d="M5305 5305 c-22 -8 -57 -32 -77 -56 -59 -65 -68 -111 -68 -346 l0
-203 240 0 240 0 0 203 c0 243 -10 289 -74 353 -62 62 -167 82 -261 49z"/>
<path d="M3337 4074 c-12 -12 -8 -51 7 -63 9 -8 49 -11 116 -9 85 3 105 6 114
21 8 12 8 22 0 35 -9 14 -29 17 -121 20 -60 1 -112 -1 -116 -4z"/>
<path d="M3730 3930 c-18 -18 -20 -33 -20 -133 0 -140 9 -157 79 -157 77 0 85
12 89 130 4 111 0 141 -24 164 -23 24 -99 21 -124 -4z"/>
<path d="M4014 3942 c-25 -17 -34 -56 -34 -154 0 -133 9 -148 85 -148 77 0 85
14 85 157 0 100 -2 115 -20 133 -20 20 -93 28 -116 12z"/>
<path d="M3872 3404 c-21 -14 -22 -22 -22 -139 0 -145 5 -155 80 -155 75 0 80
10 80 151 0 106 -2 121 -20 139 -24 24 -86 27 -118 4z"/>
<path d="M5622 4068 c-16 -16 -15 -33 4 -52 12 -12 38 -16 114 -16 90 0 100 2
114 22 11 15 12 26 5 40 -8 16 -23 18 -117 18 -71 0 -112 -4 -120 -12z"/>
<path d="M5447 3953 c-14 -13 -6 -53 12 -63 11 -5 78 -10 149 -10 114 0 131 2
146 19 14 15 15 24 6 40 -10 20 -19 21 -159 21 -81 0 -151 -3 -154 -7z"/>
<path d="M6282 4068 c-16 -16 -15 -33 4 -52 12 -12 38 -16 114 -16 76 0 102 4
114 16 19 18 19 20 6 45 -10 17 -22 19 -118 19 -71 0 -112 -4 -120 -12z"/>
<path d="M6677 3932 c-14 -15 -17 -41 -17 -139 0 -140 7 -153 82 -153 71 0 78
14 78 157 0 103 -3 122 -18 136 -26 24 -104 23 -125 -1z"/>
<path d="M6950 3930 c-18 -18 -20 -33 -20 -138 0 -139 7 -152 83 -152 76 0 92
33 86 184 -5 104 -20 126 -86 126 -30 0 -49 -6 -63 -20z"/>
<path d="M6811 3394 c-18 -23 -21 -41 -21 -133 0 -136 8 -151 85 -151 77 0 85
14 85 155 0 98 -2 114 -20 133 -31 33 -102 31 -129 -4z"/>
</g>
</svg>
