<?xml version="1.0" standalone="no"?>
<!DOCTYPE svg PUBLIC "-//W3C//DTD SVG 20010904//EN"
 "http://www.w3.org/TR/2001/REC-SVG-20010904/DTD/svg10.dtd">
<svg version="1.0" xmlns="http://www.w3.org/2000/svg"
 width="1080.000000pt" height="1080.000000pt" viewBox="0 0 1080.000000 1080.000000"
 preserveAspectRatio="xMidYMid meet">
<metadata>
Created by potrace 1.16, written by Peter Selinger 2001-2019
</metadata>
<g transform="translate(0.000000,1080.000000) scale(0.100000,-0.100000)"
fill="#000000" stroke="none">
<path d="M4195 6319 c-649 -578 -1193 -1061 -1208 -1075 l-28 -24 127 -145
c109 -123 130 -143 143 -132 8 6 497 439 1085 961 588 522 1075 949 1082 950
7 1 484 -417 1060 -929 576 -511 1064 -945 1085 -963 l38 -32 125 142 c69 78
126 144 126 148 0 3 -33 34 -72 69 -40 35 -583 517 -1206 1070 -696 618 -1141
1007 -1155 1008 -16 2 -314 -258 -1202 -1048z"/>
<path d="M3687 7063 c-11 -11 -8 -915 3 -911 5 2 145 126 310 276 l300 272 0
185 0 185 -303 0 c-167 0 -307 -3 -310 -7z"/>
<path d="M5344 6497 c-27 -24 -412 -366 -856 -761 l-808 -717 0 -1087 c0
-1015 1 -1089 18 -1122 9 -19 28 -40 42 -47 19 -10 149 -12 570 -10 l545 2 5
498 5 499 28 24 28 24 478 0 478 0 25 -25 c14 -14 28 -42 32 -63 3 -20 6 -245
6 -500 l0 -462 555 2 555 3 27 28 28 27 3 1108 2 1107 -851 755 c-468 415
-854 756 -859 758 -4 1 -29 -17 -56 -41z"/>
</g>
</svg>
