<?xml version="1.0" standalone="no"?>
<!DOCTYPE svg PUBLIC "-//W3C//DTD SVG 20010904//EN"
 "http://www.w3.org/TR/2001/REC-SVG-20010904/DTD/svg10.dtd">
<svg version="1.0" xmlns="http://www.w3.org/2000/svg"
 width="1080.000000pt" height="1080.000000pt" viewBox="0 0 1080.000000 1080.000000"
 preserveAspectRatio="xMidYMid meet">
<metadata>
Created by potrace 1.16, written by Peter Selinger 2001-2019
</metadata>
<g transform="translate(0.000000,1080.000000) scale(0.100000,-0.100000)"
fill="#000000" stroke="none">
<path d="M4220 7014 c-244 -41 -419 -163 -524 -364 -52 -99 -69 -177 -69 -310
0 -145 29 -243 104 -354 159 -239 430 -350 710 -291 235 50 439 246 499 481
22 85 26 218 10 305 -44 235 -249 452 -483 513 -60 16 -204 27 -247 20z m215
-224 c84 -29 133 -60 196 -126 70 -74 108 -152 122 -249 37 -253 -135 -484
-391 -527 -63 -11 -85 -10 -153 4 -106 22 -159 49 -235 121 -46 43 -74 80
-101 134 -33 67 -38 85 -41 169 -5 104 6 162 45 239 54 109 146 190 261 231
88 31 213 33 297 4z"/>
<path d="M5782 7000 c-157 -24 -294 -99 -406 -222 -114 -124 -165 -263 -166
-444 -1 -496 520 -814 970 -592 120 59 239 178 297 298 54 112 68 174 67 300
-2 163 -47 296 -143 415 -145 180 -398 280 -619 245z m236 -218 c107 -34 208
-115 265 -213 44 -76 60 -150 55 -259 -3 -88 -7 -104 -41 -172 -44 -90 -135
-182 -221 -222 -221 -105 -496 -13 -609 202 -136 259 -11 568 267 663 71 24
207 24 284 1z"/>
<path d="M3843 5499 c-101 -19 -206 -95 -259 -185 -56 -95 -54 -59 -54 -1110
0 -1078 -3 -1026 67 -1131 42 -64 88 -105 153 -138 l49 -25 1354 0 1353 0 52
26 c59 29 128 93 164 150 49 78 58 125 58 301 0 90 3 163 8 163 4 0 187 -99
407 -220 376 -207 403 -220 452 -220 67 0 92 10 142 58 l41 39 0 992 c0 1105
6 1013 -71 1067 -34 23 -51 28 -107 28 l-67 1 -400 -222 -400 -222 -5 182 c-5
171 -7 185 -32 239 -53 114 -163 201 -286 227 -63 13 -2551 14 -2619 0z m2634
-218 c24 -14 55 -42 70 -64 l28 -40 5 -275 5 -274 28 -24 c56 -48 62 -46 562
231 l460 255 3 -882 c1 -485 1 -883 -1 -885 -2 -1 -211 112 -464 252 -263 145
-472 255 -487 255 -40 0 -74 -20 -91 -55 -12 -27 -15 -78 -15 -277 0 -264 -6
-294 -61 -345 -61 -56 10 -53 -1369 -53 -1045 0 -1276 2 -1303 14 -44 18 -94
77 -107 125 -7 27 -10 340 -8 988 l3 948 23 37 c25 40 77 77 126 89 17 4 598
6 1291 6 l1260 -2 42 -24z"/>
</g>
</svg>
