<?xml version="1.0" standalone="no"?>
<!DOCTYPE svg PUBLIC "-//W3C//DTD SVG 20010904//EN"
 "http://www.w3.org/TR/2001/REC-SVG-20010904/DTD/svg10.dtd">
<svg version="1.0" xmlns="http://www.w3.org/2000/svg"
 width="1080.000000pt" height="1080.000000pt" viewBox="0 0 1080.000000 1080.000000"
 preserveAspectRatio="xMidYMid meet">
<metadata>
Created by potrace 1.16, written by Peter Selinger 2001-2019
</metadata>
<g transform="translate(0.000000,1080.000000) scale(0.100000,-0.100000)"
fill="#000000" stroke="none">
<path d="M5365 7191 c-11 -5 -491 -481 -1067 -1058 -1021 -1021 -1048 -1049
-1048 -1086 0 -51 35 -87 86 -87 35 0 49 12 230 192 l194 192 2 -1197 3 -1197
28 -27 27 -28 1580 0 1580 0 27 28 28 27 3 1197 2 1197 194 -192 c177 -176
196 -192 228 -192 50 0 88 37 88 87 0 36 -15 53 -430 468 l-430 430 0 343 0
343 -25 24 c-16 17 -35 25 -60 25 -25 0 -44 -8 -60 -25 l-25 -24 0 -258 0
-258 -537 537 c-558 558 -564 563 -618 539z m767 -938 l728 -728 0 -1227 0
-1228 -1460 0 -1460 0 0 1227 0 1228 727 727 c401 401 730 728 733 728 3 0
332 -327 732 -727z"/>
</g>
</svg>
